<svg id="Layer_1" data-name="Layer 1" xmlns="http://www.w3.org/2000/svg" viewBox="0 0 50 34"><title>email</title><path d="M43.32,1.93h-36A3.06,3.06,0,0,0,4,5.25V29a3.07,3.07,0,0,0,3.33,3.35h36a3.06,3.06,0,0,0,3.29-3.3V5.25A3.06,3.06,0,0,0,43.32,1.93Zm-.24,27.41q-17.76,0-35.53,0c-.41,0-.52-.09-.52-.51,0-6.24,0-12.49,0-18.74V9.62a.79.79,0,0,1,.43.24l15.74,11.8a3.08,3.08,0,0,0,4.2,0L43.27,9.78l.31-.23v.54q0,9.38,0,18.74C43.59,29.25,43.49,29.34,43.08,29.34Zm.25-23.42-6.08,4.55q-5.8,4.35-11.59,8.7a.46.46,0,0,1-.68,0Q16.17,12.55,7.34,6A.88.88,0,0,1,7,5.14C7,5,7.14,5,7.26,5H43.07c.16,0,.45-.12.49.1A.73.73,0,0,1,43.33,5.92Z"/></svg>