<svg id="Layer_1" data-name="Layer 1" xmlns="http://www.w3.org/2000/svg" viewBox="0 0 35 34"><defs><style>.cls-1{fill:#ececec;}.cls-2{fill:#3a3a3a;}.cls-3{fill:#363636;}.cls-4{fill:#a3a3a3;}.cls-5{fill:#7f7f7f;}</style></defs><title>instagram</title><path class="cls-1" d="M1.09,19.71H1V14.45h.05Z"/><path class="cls-2" d="M12.48,33.05a8.62,8.62,0,0,1,1.76.05H12.49s0,0,0,0S12.48,33.05,12.48,33.05Z"/><path class="cls-3" d="M20,33.1A7.51,7.51,0,0,1,21.57,33s0,0,0,0a0,0,0,0,1,0,0Z"/><path class="cls-4" d="M12.48,33.05a.07.07,0,0,1,0,.05h-.94v-.05Z"/><path class="cls-5" d="M21.56,33.1s0,0,0-.06c.23,0,.47-.09.68.06Z"/><path d="M33,9.46a9.2,9.2,0,0,0-1.27-4.15,8.52,8.52,0,0,0-6-4A23.24,23.24,0,0,0,21.67,1c-3.66,0-7.32,0-11,0a12.48,12.48,0,0,0-3,.4A8.25,8.25,0,0,0,2.08,6.05a11.14,11.14,0,0,0-1,4.62c0,1.28-.06,2.56,0,3.84v5.13c0,1.46,0,2.92.07,4.37a10.65,10.65,0,0,0,.71,3.57,8.21,8.21,0,0,0,5.37,5,13.49,13.49,0,0,0,4.38.51h.9a16.84,16.84,0,0,1,1.74,0H20a13.19,13.19,0,0,1,1.54,0,3.35,3.35,0,0,1,.71,0h.31a7.89,7.89,0,0,1,1.37-.05,10.61,10.61,0,0,0,3.31-.57,8.3,8.3,0,0,0,5.45-5.83,12.82,12.82,0,0,0,.41-3.59c0-3.81,0-7.61,0-11.42C33.11,10.91,33.1,10.19,33,9.46ZM30.2,22.67a14,14,0,0,1-.34,3.1A5.43,5.43,0,0,1,25.11,30a38.33,38.33,0,0,1-5.46.26c-.84,0-1.69,0-2.53,0-2.32,0-4.63,0-6.94-.13a7.08,7.08,0,0,1-3.31-.91A5.54,5.54,0,0,1,4.23,25,41,41,0,0,1,4,19.54c0-2.58,0-5.15,0-7.73a14.55,14.55,0,0,1,.34-3.35A5.39,5.39,0,0,1,9,4.26,27.21,27.21,0,0,1,13.74,4c2.81,0,5.61,0,8.41,0a16.15,16.15,0,0,1,3.54.33A5.48,5.48,0,0,1,30,9.14a27.73,27.73,0,0,1,.22,4C30.27,16.3,30.29,19.49,30.2,22.67Z"/><path d="M27.59,8.53a1.92,1.92,0,1,1-1.93-1.91A1.91,1.91,0,0,1,27.59,8.53Z"/><path d="M17.1,8.86a8.23,8.23,0,1,0,8.24,8.21A8.23,8.23,0,0,0,17.1,8.86Zm0,13.55a5.33,5.33,0,1,1,5.34-5.33A5.31,5.31,0,0,1,17.11,22.41Z"/></svg>