<svg id="Layer_1" data-name="Layer 1" xmlns="http://www.w3.org/2000/svg" viewBox="0 0 35 34"><title>whatsapp</title><path d="M24.51,20.31c-1.05-.53-2.09-1.07-3.17-1.51a.58.58,0,0,0-.76.24c-.35.47-.74.92-1.11,1.38a.58.58,0,0,1-.75.19,10.21,10.21,0,0,1-5.11-4.39.58.58,0,0,1,.05-.76,10.82,10.82,0,0,0,.92-1.22.69.69,0,0,0,.09-.68c-.41-1-.82-2-1.22-2.93a.8.8,0,0,0-.86-.57c-.2,0-.4,0-.6,0a1.33,1.33,0,0,0-1,.39,4.13,4.13,0,0,0-1.36,3.1,4.47,4.47,0,0,0,.12,1.1,8.81,8.81,0,0,0,1.5,3,15.12,15.12,0,0,0,8.33,6.22,4.42,4.42,0,0,0,2.94,0c1.7-.7,2.16-1.48,2.2-3.07A.44.44,0,0,0,24.51,20.31Z"/><path d="M31.17,11.8A14.83,14.83,0,0,0,15.83,2.12,14.36,14.36,0,0,0,6.16,7a14.79,14.79,0,0,0-2,17.16.55.55,0,0,1,0,.47c-.68,2.46-1.35,4.93-2,7.45L2.54,32l7.27-1.91a.7.7,0,0,1,.53.06A14.45,14.45,0,0,0,16,31.76,14.72,14.72,0,0,0,26.53,28.5,14.9,14.9,0,0,0,31.17,11.8ZM19.59,29.06a12.21,12.21,0,0,1-8.83-1.58.75.75,0,0,0-.64-.09c-1.39.38-2.79.74-4.19,1.1l-.15,0c.39-1.43.76-2.83,1.15-4.22a.71.71,0,0,0-.09-.63,12,12,0,0,1-2-7.41A12.09,12.09,0,0,1,9,7.72a12.09,12.09,0,0,1,6.33-3,12.37,12.37,0,0,1,4.29,24.36Z"/></svg>